<?xml version="1.0" encoding="UTF-8" standalone="no"?>
<!DOCTYPE svg PUBLIC "-//W3C//DTD SVG 1.1//EN" "http://www.w3.org/Graphics/SVG/1.1/DTD/svg11.dtd">
<svg id="root" width="517.00" height="403.00" viewBox="0.00 0.00 517.00 403.00" xmlns="http://www.w3.org/2000/svg" xmlns:xlink="http://www.w3.org/1999/xlink">
<g stroke-linecap="round" transform="translate(-427.00, -66.00)" id="share-icon">
<path d="M435.79,460.55 C450.36,441.24 499.48,376.18 510.61,363.04 C516.80,356.07 530.47,341.87 535.46,337.16 C542.52,330.69 554.26,321.06 560.57,316.56 C567.06,311.96 582.10,302.93 590.64,299.00 C599.38,295.02 616.98,289.48 625.84,287.94 C634.70,286.42 650.43,285.90 661.45,286.67 C687.36,288.51 715.26,290.49 717.25,290.63 C717.25,290.63 684.58,396.46 684.58,396.46 C691.85,389.66 709.68,372.97 720.23,363.10 C737.15,347.28 760.97,326.66 775.31,315.64 C782.55,310.27 797.20,300.00 804.82,294.96 C812.72,289.95 828.71,280.43 836.81,275.92 C844.98,271.57 861.52,263.38 869.90,259.54 C896.70,248.00 927.54,234.73 931.58,232.99 C908.74,223.95 865.17,206.62 852.36,200.87 C844.04,196.93 827.61,188.54 819.50,184.10 C811.47,179.48 795.72,169.81 788.11,164.83 C780.56,159.68 765.67,148.92 758.33,143.29 C741.70,130.07 693.71,86.76 682.42,76.58 C682.42,76.58 717.46,188.02 717.46,188.02 C694.22,185.89 654.09,182.22 637.18,180.68 C622.85,179.37 608.49,178.85 599.50,179.57 C590.52,180.32 573.61,183.94 565.68,186.83 C557.76,189.73 542.96,197.69 536.08,202.73 C529.33,207.71 518.04,218.59 513.32,224.12 C508.72,229.54 500.13,241.68 496.16,248.39 C492.19,255.12 484.88,269.87 481.53,277.88 C478.23,285.99 472.23,303.42 469.45,312.58 C465.03,328.56 445.68,415.87 439.55,443.54 C438.42,448.66 436.54,457.17 435.79,460.55 Z" stroke-width="30.00" stroke-opacity="1.00" stroke-linejoin="round"/>
</g>
</svg>
